<svg viewBox="0 0 250 41" xmlns="http://www.w3.org/2000/svg" xml:space="preserve" style="fill-rule:evenodd;clip-rule:evenodd;stroke-linejoin:round;stroke-miterlimit:1.41421"><path d="m2158.04 447.724 92.11-79.738h-46.56l-74.04 63.4V285.212h-32.84v249.956h32.84V463.59l86.09 71.578h47.91l-105.51-87.444ZM862.415 381.306c11.684 0 22.683 2.753 30.241 11.351l-86.625 54.986c-4.125-36.081 18.909-66.337 56.384-66.337m1.02 123.051c-20.625 0-36.777-10.647-47.775-28.175l122.37-78.027c-18.9-30.945-40.904-47.784-78.026-47.784-46.406 0-86.966 40.216-86.966 87.644 0 55.344 36.428 97.294 92.457 97.294 27.161 0 54.687-17.103 76.349-32.232l-13.785-28.955c-17.877 14.083-40.904 30.235-64.624 30.235m1046.895-.366h-59.95c-16.77 0-30.95-5.959-42.55-17.864-11.6-11.914-17.39-26.235-17.39-42.969 0-16.723 5.79-31.121 17.39-43.209 11.6-12.078 25.78-18.123 42.55-18.123 16.76 0 30.95 6.045 42.55 18.123 11.6 12.088 17.4 26.486 17.4 43.209v60.833Zm-60.07-153.47c-25.56 0-47.55 9.041-65.94 27.133-18.41 18.093-27.61 39.924-27.61 65.49 0 25.559 9.2 47.318 27.61 65.258 18.39 17.933 40.38 26.907 65.94 26.907h93.79v-92.165c0-25.566-9.24-47.397-27.72-65.49-18.48-18.092-40.51-27.133-66.07-27.133m141.41 27.959c-19.12 18.656-28.7 41.281-28.7 67.848v88.981h34.04v-88.981c0-15.857 10.57-57.127 63.21-63.771h17.57v-32.036h-17.57c-26.57 0-49.42 9.319-68.55 27.959m-324.82-28.032c-20.39 0-46.82 8.283-58.88 25.614-12.05-17.331-38.48-25.614-58.89-25.614-36.98 0-70.93 27.875-70.93 61.832v123.029h33.16V419.836c0-23.029 18.91-37.743 38.53-37.743 21.53 0 41.56 12.074 41.56 43.021v110.195h33.15V425.114c0-30.947 20.04-43.021 41.56-43.021 19.63 0 38.53 14.714 38.53 37.743v115.473h33.15V412.28c0-33.957-33.93-61.832-70.94-61.832m-631.32-.057c-44.155 0-77.36 31.7-77.36 79.249v105.669h33.205V429.64c0-27.931 20.385-47.549 44.155-47.549 23.78 0 44.16 19.618 44.16 47.549v105.669h33.2V429.64c0-47.549-33.2-79.249-77.36-79.249m348.62 0c-19.25 0-36.23 8.3-46.42 19.627v-83.924h-33.2v249.215h33.2V429.64c0-27.931 20.01-47.549 44.15-47.549 23.77 0 44.16 10.567 44.16 47.549v105.669h33.19V429.64c0-61.143-33.19-79.249-75.08-79.249m-162.72 153.867c-30.2 0-56.64-29.871-56.64-61.113 0-31.944 22.67-61.82 55.97-61.82 19.57 0 29.2 5.16 43.95 16.148l19.92-22.67c-18.19-15.798-40.17-24.378-64.22-24.378-52.18 0-88.6 42.566-88.6 93.752 0 51.164 42.59 91.004 88.6 91.004 25.77 0 47.75-11.692 65.26-29.887l-21.31-21.641c-12.02 11.688-24.36 20.605-42.93 20.605M169.817 346.619c8.652-.042 17.415.029 26.225 0-.076 22.1-.124 43.721-.124 63.723 0 69.072 56.177 125.245 125.23 125.245 69.048 0 125.217-56.173 125.217-125.245 0-69.04-56.169-125.103-125.217-125.103-18.028 0-40.432-.082-63.999 0 .029-8.796-.026-17.551 0-26.228 23.588-.072 45.914 0 63.999 0 83.51 0 151.449 67.837 151.449 151.331 0 83.518-67.939 151.461-151.449 151.461-83.515 0-151.455-67.943-151.455-151.461 0-20.031.057-41.643.124-63.723m.056-43.989h26.328v26.211h-26.328V302.63Zm.177-43.618h26.319v26.234H170.05v-26.234Zm43.501 87.436h26.097c-.078 22.182-.131 43.79-.131 63.894 0 45.024 36.624 81.635 81.631 81.635 44.996 0 81.619-36.611 81.619-81.635 0-44.993-36.623-81.474-81.619-81.474-18.167 0-40.296-.075-63.999 0V302.63c23.601-.081 45.956 0 63.999 0 59.39 0 107.707 48.325 107.707 107.712 0 59.404-48.317 107.735-107.707 107.735-59.394 0-107.72-48.331-107.72-107.735 0-20.017.049-41.761.123-63.894m.058-43.818h26.1v26.211h-26.1V302.63Zm.168-43.618h26.204v26.234h-26.204v-26.234Zm43.372 87.361c23.744-.077 45.819 0 63.999 0 35.348 0 64.108 28.636 64.108 63.969 0 35.364-28.76 64.125-64.108 64.125-35.354 0-64.114-28.761-64.114-64.125 0-20.132.047-41.753.115-63.969m-104.971 63.969c0 93.169 75.801 168.982 168.97 168.982 93.163 0 168.959-75.813 168.959-168.982 0-93.155-75.796-168.944-168.959-168.944-18.07 0-168.444.516-168.444.516s-.526 148.419-.526 168.428m550.818 75.539c-11.601 12.078-25.785 18.123-42.549 18.123-16.767 0-30.954-6.045-42.548-18.123-11.6-12.088-17.401-26.486-17.401-43.209v-60.833h59.949c16.764 0 30.948 5.959 42.549 17.864 11.601 11.914 17.392 26.235 17.392 42.969 0 16.723-5.791 31.121-17.392 43.209m23.506-108.453c-18.384-17.933-40.374-26.907-65.941-26.907h-59.439v-65.309h-34.346v157.474c0 25.566 9.238 47.397 27.717 65.49 18.48 18.092 40.51 27.133 66.068 27.133 25.567 0 47.557-9.041 65.941-27.133 18.411-18.093 27.616-39.924 27.616-65.49 0-25.559-9.205-47.318-27.616-65.258" style="fill:#1b1b1b;fill-rule:nonzero" transform="translate(-18.019 -28.583) scale(.1184)"/></svg>